<?xml version="1.0" encoding="iso-8859-1"?>
<!-- Generator: Adobe Illustrator 19.0.0, SVG Export Plug-In . SVG Version: 6.00 Build 0)  -->
<svg version="1.1" id="Layer_1" xmlns="http://www.w3.org/2000/svg" xmlns:xlink="http://www.w3.org/1999/xlink" x="0px" y="0px"
	 viewBox="0 0 512 512" style="enable-background:new 0 0 512 512;" xml:space="preserve">
<g>
	<g>
		<path d="M9.002,0c-4.661,0-8.44,3.779-8.44,8.44v93.543c0,4.662,3.779,8.44,8.44,8.44s8.44-3.779,8.44-8.44V8.44
			C17.442,3.779,13.663,0,9.002,0z"/>
	</g>
</g>
<g>
	<g>
		<path d="M502.998,495.121H17.442V135.74c0-4.661-3.779-8.44-8.44-8.44s-8.44,3.779-8.44,8.44V503.56c0,4.661,3.779,8.44,8.44,8.44
			h493.996c4.661,0,8.44-3.779,8.44-8.44S507.659,495.121,502.998,495.121z"/>
	</g>
</g>
<g>
	<g>
		<path d="M149.096,345.096c-3.245-3.345-8.588-3.429-11.935-0.183l-93.525,90.699c-3.347,3.244-3.428,8.588-0.183,11.934
			c1.656,1.707,3.856,2.565,6.061,2.565c2.115,0,4.236-0.791,5.874-2.381l93.525-90.699
			C152.259,353.785,152.34,348.441,149.096,345.096z"/>
	</g>
</g>
<g>
	<g>
		<path d="M471.327,282.752l-39.162,36.927l-19.93-19.178l71.318-84.052c3.016-3.555,2.579-8.881-0.974-11.895
			c-3.554-3.016-8.88-2.578-11.895,0.974l-70.633,83.247l-128.235-123.39c-3.358-3.232-8.701-3.128-11.932,0.23
			c-3.232,3.359-3.129,8.701,0.23,11.932l128.994,124.125l-70.164,82.693L212.887,282.798c-3.278-3.141-8.453-3.123-11.713,0.036
			l-43.765,42.442c-3.347,3.245-3.428,8.588-0.183,11.934c3.244,3.345,8.588,3.429,11.934,0.183l37.927-36.781L313.74,402.754
			c1.574,1.508,3.667,2.344,5.838,2.344c0.145,0,0.29-0.003,0.437-0.011c2.323-0.12,4.494-1.194,5.999-2.969l75.28-88.722
			l24.961,24.019c1.633,1.571,3.742,2.359,5.851,2.359c2.082,0,4.164-0.765,5.791-2.299l45.011-42.442
			c3.392-3.197,3.548-8.539,0.35-11.93C480.06,279.712,474.72,279.554,471.327,282.752z"/>
	</g>
</g>
<g>
	<g>
		<path d="M250.862,145.222l-37.96-36.525c-3.23-3.107-8.327-3.148-11.606-0.092L43.757,255.453
			c-3.41,3.179-3.598,8.518-0.42,11.928c1.663,1.784,3.917,2.685,6.176,2.685c2.061,0,4.126-0.749,5.752-2.266l151.693-141.398
			l32.2,30.983c3.358,3.232,8.701,3.128,11.934-0.23C254.323,153.797,254.221,148.455,250.862,145.222z"/>
	</g>
</g>
<g>
</g>
<g>
</g>
<g>
</g>
<g>
</g>
<g>
</g>
<g>
</g>
<g>
</g>
<g>
</g>
<g>
</g>
<g>
</g>
<g>
</g>
<g>
</g>
<g>
</g>
<g>
</g>
<g>
</g>
</svg>
