<?xml version="1.0" encoding="utf-8"?>
<svg viewBox="0 0 500 500" xmlns="http://www.w3.org/2000/svg">
  <path d="M 78.617 55.202 C 74.75 55.202 71.617 58.335 71.617 62.202 L 71.617 435.682 C 71.765 439.608 75.004 442.706 78.933 442.682 L 456.879 442.682 C 460.746 442.682 463.879 439.549 463.879 435.682 C 463.879 431.815 460.746 428.682 456.879 428.682 L 85.617 428.682 L 85.617 62.202 C 85.617 58.335 82.484 55.202 78.617 55.202 Z M 78.617 55.202" style="fill: rgb(255, 255, 255);"/>
  <path d="M 170.871 138.682 C 156.711 138.686 145.23 150.167 145.234 164.327 C 145.234 178.487 156.715 189.967 170.875 189.967 C 185.039 189.964 196.515 178.487 196.515 164.323 C 196.5 150.167 185.027 138.694 170.871 138.682 Z M 170.871 138.682" style="fill: rgb(216, 109, 90);"/>
  <path d="M 115.226 274.323 C 115.226 288.487 126.707 299.967 140.871 299.967 C 155.031 299.967 166.511 288.487 166.511 274.323 C 166.511 260.163 155.031 248.682 140.871 248.682 C 126.715 248.698 115.246 260.171 115.226 274.323 Z M 115.226 274.323" style="fill: rgb(177, 67, 128);"/>
  <path d="M 205.226 234.323 C 205.226 248.487 216.707 259.967 230.871 259.967 C 245.031 259.967 256.511 248.487 256.511 234.323 C 256.511 220.163 245.031 208.682 230.871 208.682 C 216.715 208.698 205.246 220.171 205.226 234.323 Z M 205.226 234.323" style="fill: rgb(208, 116, 60);"/>
  <path d="M 195.226 334.323 C 195.226 348.487 206.707 359.967 220.871 359.967 C 235.031 359.967 246.511 348.487 246.511 334.323 C 246.511 320.163 235.031 308.682 220.871 308.682 C 206.715 308.698 195.246 320.171 195.226 334.323 Z M 195.226 334.323" style="fill: rgb(72, 0, 124);"/>
  <path d="M 285.226 304.323 C 285.226 318.487 296.707 329.967 310.871 329.967 C 325.031 329.967 336.511 318.487 336.511 304.323 C 336.511 290.163 325.031 278.682 310.871 278.682 C 296.715 278.698 285.246 290.171 285.226 304.323 Z M 285.226 304.323" style="fill: rgb(177, 67, 128);"/>
  <path d="M 305.226 214.323 C 305.226 228.487 316.707 239.967 330.871 239.967 C 345.031 239.967 356.511 228.487 356.511 214.323 C 356.511 200.163 345.031 188.682 330.871 188.682 C 316.715 188.698 305.246 200.171 305.226 214.323 Z M 305.226 214.323" style="fill: rgb(208, 116, 60);"/>
  <path d="M 270.871 108.682 C 256.711 108.686 245.23 120.167 245.234 134.327 C 245.234 148.487 256.715 159.967 270.875 159.967 C 285.039 159.964 296.515 148.487 296.515 134.323 C 296.5 120.167 285.027 108.694 270.871 108.682 Z M 270.871 108.682" style="fill: rgb(255, 178, 0);"/>
  <path d="M 353.871 81.682 C 339.711 81.686 328.23 93.167 328.234 107.327 C 328.234 121.487 339.715 132.967 353.875 132.967 C 368.039 132.964 379.515 121.487 379.515 107.323 C 379.5 93.167 368.027 81.694 353.871 81.682 Z M 353.871 81.682" style="fill: rgb(255, 255, 255);"/>
  <path d="M 430.871 189.967 C 445.031 189.967 456.511 178.487 456.511 164.323 C 456.511 150.163 445.031 138.682 430.871 138.682 C 416.707 138.682 405.226 150.163 405.226 164.323 C 405.246 178.479 416.715 189.952 430.871 189.967 Z M 430.871 189.967" style="fill: rgb(255, 178, 0);"/>
  <path d="M 439.871 48.682 C 425.711 48.686 414.23 60.167 414.234 74.327 C 414.234 88.487 425.715 99.967 439.875 99.967 C 454.039 99.964 465.515 88.487 465.515 74.323 C 465.5 60.167 454.027 48.694 439.871 48.682 Z M 439.871 48.682" style="fill: rgb(255, 255, 255);"/>
  <path d="M 385.226 264.323 C 385.226 278.487 396.707 289.967 410.871 289.967 C 425.031 289.967 436.511 278.487 436.511 264.323 C 436.511 250.163 425.031 238.682 410.871 238.682 C 396.715 238.698 385.246 250.171 385.226 264.323 Z M 385.226 264.323" style="fill: rgb(216, 109, 90);"/>
  <path d="M 365.226 354.323 C 365.226 368.487 376.707 379.967 390.871 379.967 C 405.031 379.967 416.511 368.487 416.511 354.323 C 416.511 340.163 405.031 328.682 390.871 328.682 C 376.715 328.698 365.246 340.171 365.226 354.323 Z M 365.226 354.323" style="fill: rgb(216, 109, 90);"/>
  <path d="M 140.871 398.967 C 155.031 398.967 166.511 387.487 166.511 373.323 C 166.511 359.163 155.031 347.682 140.871 347.682 C 126.707 347.682 115.226 359.163 115.226 373.323 C 115.246 387.479 126.715 398.952 140.871 398.967 Z M 140.871 398.967" style="fill: rgb(72, 0, 124);"/>
</svg>