<?xml version="1.0" encoding="utf-8"?>
<svg viewBox="0 0 512 512" style="enable-background:new 0 0 512 512;" xmlns="http://www.w3.org/2000/svg">
  <g>
    <g>
      <path d="M9.002,0c-4.661,0-8.44,3.779-8.44,8.44v93.543c0,4.662,3.779,8.44,8.44,8.44s8.44-3.779,8.44-8.44V8.44 C17.442,3.779,13.663,0,9.002,0z" style="fill: rgb(255, 255, 255);"/>
    </g>
  </g>
  <g>
    <g>
      <path d="M502.998,495.121H17.442V135.74c0-4.661-3.779-8.44-8.44-8.44s-8.44,3.779-8.44,8.44V503.56c0,4.661,3.779,8.44,8.44,8.44 h493.996c4.661,0,8.44-3.779,8.44-8.44S507.659,495.121,502.998,495.121z" style="fill: rgb(255, 255, 255);"/>
    </g>
  </g>
  <g>
    <g>
      <path d="M149.096,345.096c-3.245-3.345-8.588-3.429-11.935-0.183l-93.525,90.699c-3.347,3.244-3.428,8.588-0.183,11.934 c1.656,1.707,3.856,2.565,6.061,2.565c2.115,0,4.236-0.791,5.874-2.381l93.525-90.699 C152.259,353.785,152.34,348.441,149.096,345.096z" style="fill: rgb(177, 67, 128);"/>
    </g>
  </g>
  <g>
    <g>
      <path d="M 389.108 301.672 L 318.944 384.365 L 212.887 282.798 C 209.609 279.657 204.434 279.675 201.174 282.834 L 157.409 325.276 C 154.062 328.521 153.981 333.864 157.226 337.21 C 160.47 340.555 165.814 340.639 169.16 337.393 L 207.087 300.612 L 313.74 402.754 C 315.314 404.262 317.407 405.098 319.578 405.098 C 319.723 405.098 319.868 405.095 320.015 405.087 C 322.338 404.967 324.509 403.893 326.014 402.118 L 401.294 313.396" style="fill: rgb(177, 67, 128);"/>
      <path d="M 400.051 288.775 L 271.816 165.385 C 268.458 162.153 263.115 162.257 259.884 165.615 C 256.652 168.974 256.755 174.316 260.114 177.547 L 389.108 301.672" style="fill: rgb(255, 178, 0);"/>
      <path d="M 412.235 300.501 L 483.553 216.449 C 486.569 212.894 486.132 207.568 482.579 204.554 C 479.025 201.538 473.699 201.976 470.684 205.528 L 400.051 288.775" style="fill: rgb(177, 67, 128);"/>
      <path d="M 386.294 297.396 L 426.255 337.415 C 427.888 338.986 429.997 339.774 432.106 339.774 C 434.188 339.774 436.27 339.009 437.897 337.475 L 482.908 295.033 C 486.3 291.836 486.456 286.494 483.258 283.103 C 480.06 279.712 474.72 279.554 471.327 282.752 L 432.165 319.679 L 396.235 286.501" style="fill: rgb(255, 178, 0);"/>
    </g>
  </g>
  <g>
    <g>
      <path d="M250.862,145.222l-37.96-36.525c-3.23-3.107-8.327-3.148-11.606-0.092L43.757,255.453 c-3.41,3.179-3.598,8.518-0.42,11.928c1.663,1.784,3.917,2.685,6.176,2.685c2.061,0,4.126-0.749,5.752-2.266l151.693-141.398 l32.2,30.983c3.358,3.232,8.701,3.128,11.934-0.23C254.323,153.797,254.221,148.455,250.862,145.222z" style="fill: rgb(255, 178, 0);"/>
    </g>
  </g>
  <g/>
  <g/>
  <g/>
  <g/>
  <g/>
  <g/>
  <g/>
  <g/>
  <g/>
  <g/>
  <g/>
  <g/>
  <g/>
  <g/>
  <g/>
</svg>