<?xml version="1.0" encoding="utf-8"?>
<svg viewBox="0 0 500 500" xmlns="http://www.w3.org/2000/svg">
  <path d="M 58.756 67.868 C 54.889 67.868 51.756 71.001 51.756 74.868 L 51.756 448.348 C 51.904 452.274 55.143 455.372 59.072 455.348 L 437.018 455.348 C 440.885 455.348 444.018 452.215 444.018 448.348 C 444.018 444.481 440.885 441.348 437.018 441.348 L 65.756 441.348 L 65.756 74.868 C 65.756 71.001 62.623 67.868 58.756 67.868 Z M 58.756 67.868" style="fill: rgb(255, 255, 255);"/>
  <path d="M 151.01 151.348 C 136.85 151.352 125.369 162.833 125.373 176.993 C 125.373 191.153 136.854 202.633 151.014 202.633 C 165.178 202.63 176.654 191.153 176.654 176.989 C 176.639 162.833 165.166 151.36 151.01 151.348 Z M 151.01 151.348" style="fill: rgb(77, 77, 83);"/>
  <path d="M 95.365 286.989 C 95.365 301.153 106.846 312.633 121.01 312.633 C 135.17 312.633 146.65 301.153 146.65 286.989 C 146.65 272.829 135.17 261.348 121.01 261.348 C 106.854 261.364 95.385 272.837 95.365 286.989 Z M 95.365 286.989" style="fill: rgb(26, 26, 28);"/>
  <path d="M 185.365 246.989 C 185.365 261.153 196.846 272.633 211.01 272.633 C 225.17 272.633 236.65 261.153 236.65 246.989 C 236.65 232.829 225.17 221.348 211.01 221.348 C 196.854 221.364 185.385 232.837 185.365 246.989 Z M 185.365 246.989" style="fill: rgb(51, 51, 55);"/>
  <path d="M 175.365 346.989 C 175.365 361.153 186.846 372.633 201.01 372.633 C 215.17 372.633 226.65 361.153 226.65 346.989 C 226.65 332.829 215.17 321.348 201.01 321.348 C 186.854 321.364 175.385 332.837 175.365 346.989 Z M 175.365 346.989" style=""/>
  <path d="M 265.365 316.989 C 265.365 331.153 276.846 342.633 291.01 342.633 C 305.17 342.633 316.65 331.153 316.65 316.989 C 316.65 302.829 305.17 291.348 291.01 291.348 C 276.854 291.364 265.385 302.837 265.365 316.989 Z M 265.365 316.989" style="fill: rgb(26, 26, 28);"/>
  <path d="M 285.365 226.989 C 285.365 241.153 296.846 252.633 311.01 252.633 C 325.17 252.633 336.65 241.153 336.65 226.989 C 336.65 212.829 325.17 201.348 311.01 201.348 C 296.854 201.364 285.385 212.837 285.365 226.989 Z M 285.365 226.989" style="fill: rgb(51, 51, 55);"/>
  <path d="M 251.01 121.348 C 236.85 121.352 225.369 132.833 225.373 146.993 C 225.373 161.153 236.854 172.633 251.014 172.633 C 265.178 172.63 276.654 161.153 276.654 146.989 C 276.639 132.833 265.166 121.36 251.01 121.348 Z M 251.01 121.348" style="fill: rgb(102, 102, 110);"/>
  <path d="M 334.01 94.348 C 319.85 94.352 308.369 105.833 308.373 119.993 C 308.373 134.153 319.854 145.633 334.014 145.633 C 348.178 145.63 359.654 134.153 359.654 119.989 C 359.639 105.833 348.166 94.36 334.01 94.348 Z M 334.01 94.348" style="fill: rgb(128, 128, 136);"/>
  <path d="M 411.01 202.633 C 425.17 202.633 436.65 191.153 436.65 176.989 C 436.65 162.829 425.17 151.348 411.01 151.348 C 396.846 151.348 385.365 162.829 385.365 176.989 C 385.385 191.145 396.854 202.618 411.01 202.633 Z M 411.01 202.633" style="fill: rgb(102, 102, 110);"/>
  <path d="M 420.01 61.348 C 405.85 61.352 394.369 72.833 394.373 86.993 C 394.373 101.153 405.854 112.633 420.014 112.633 C 434.178 112.63 445.654 101.153 445.654 86.989 C 445.639 72.833 434.166 61.36 420.01 61.348 Z M 420.01 61.348" style="fill: rgb(128, 128, 136);"/>
  <path d="M 365.365 276.989 C 365.365 291.153 376.846 302.633 391.01 302.633 C 405.17 302.633 416.65 291.153 416.65 276.989 C 416.65 262.829 405.17 251.348 391.01 251.348 C 376.854 251.364 365.385 262.837 365.365 276.989 Z M 365.365 276.989" style="fill: rgb(77, 77, 83);"/>
  <path d="M 345.365 366.989 C 345.365 381.153 356.846 392.633 371.01 392.633 C 385.17 392.633 396.65 381.153 396.65 366.989 C 396.65 352.829 385.17 341.348 371.01 341.348 C 356.854 341.364 345.385 352.837 345.365 366.989 Z M 345.365 366.989" style=""/>
  <path d="M 121.01 411.633 C 135.17 411.633 146.65 400.153 146.65 385.989 C 146.65 371.829 135.17 360.348 121.01 360.348 C 106.846 360.348 95.365 371.829 95.365 385.989 C 95.385 400.145 106.854 411.618 121.01 411.633 Z M 121.01 411.633" style=""/>
</svg>