<?xml version="1.0" encoding="utf-8"?>
<svg viewBox="0 0 500 500" xmlns="http://www.w3.org/2000/svg">
  <g transform="matrix(0.922329, 0, 0, 0.939281, 13.430052, 11.846858)" style="">
    <g>
      <path d="M9.002,0c-4.661,0-8.44,3.779-8.44,8.44v93.543c0,4.662,3.779,8.44,8.44,8.44s8.44-3.779,8.44-8.44V8.44 C17.442,3.779,13.663,0,9.002,0z" style="fill: rgb(255, 255, 255);"/>
    </g>
  </g>
  <g transform="matrix(0.922329, 0, 0, 0.939281, 13.430052, 11.846858)" style="">
    <g>
      <path d="M502.998,495.121H17.442V135.74c0-4.661-3.779-8.44-8.44-8.44s-8.44,3.779-8.44,8.44V503.56c0,4.661,3.779,8.44,8.44,8.44 h493.996c4.661,0,8.44-3.779,8.44-8.44S507.659,495.121,502.998,495.121z" style="fill: rgb(255, 255, 255);"/>
    </g>
  </g>
  <g transform="matrix(0.922329, 0, 0, 0.939281, 13.430052, 11.846858)" style="">
    <g>
      <path d="M149.096,345.096c-3.245-3.345-8.588-3.429-11.935-0.183l-93.525,90.699c-3.347,3.244-3.428,8.588-0.183,11.934 c1.656,1.707,3.856,2.565,6.061,2.565c2.115,0,4.236-0.791,5.874-2.381l93.525-90.699 C152.259,353.785,152.34,348.441,149.096,345.096z"/>
    </g>
  </g>
  <path d="M 372.316 295.202 L 339.958 334.038 L 307.601 372.874 L 258.691 325.174 L 209.782 277.474 C 208.27 275.999 206.321 275.265 204.374 275.271 C 202.427 275.278 200.482 276.024 198.979 277.508 L 178.796 297.44 L 158.613 317.372 C 157.069 318.896 156.279 320.913 156.248 322.941 C 156.218 324.97 156.947 327.011 158.444 328.582 C 159.94 330.153 161.92 330.958 163.912 330.99 C 165.904 331.021 167.908 330.279 169.451 328.754 L 186.941 311.48 L 204.432 294.206 L 253.617 342.176 L 302.802 390.146 C 303.527 390.855 304.373 391.405 305.287 391.778 C 306.202 392.152 307.185 392.348 308.186 392.348 C 308.253 392.348 308.32 392.347 308.387 392.346 C 308.454 392.344 308.521 392.341 308.589 392.337 C 309.66 392.281 310.697 392.001 311.639 391.526 C 312.58 391.052 313.428 390.383 314.122 389.549 L 348.838 347.882 L 383.555 306.214" style=""/>
  <path style="fill: rgb(102, 102, 110);" d="M 383.555 306.214 L 395.066 317.494 L 406.577 328.774 C 407.33 329.512 408.193 330.066 409.111 330.436 C 410.029 330.805 411.001 330.99 411.974 330.99 C 412.934 330.99 413.894 330.811 414.802 330.451 C 415.71 330.091 416.565 329.552 417.315 328.831 L 438.072 308.899 L 458.83 288.966 C 460.394 287.465 461.213 285.459 461.271 283.431 C 461.329 281.403 460.628 279.353 459.153 277.76 C 457.678 276.168 455.709 275.334 453.718 275.275 C 451.727 275.215 449.713 275.929 448.149 277.43 L 430.089 294.773 L 412.028 312.115 L 402.837 303.109 L 393.646 294.102"/>
  <path style="fill: rgb(102, 102, 110);" d="M 396.226 296.904 L 323.272 225.139 L 264.134 167.19 C 262.586 165.672 260.579 164.938 258.588 164.977 C 256.596 165.016 254.619 165.829 253.129 167.406 C 251.638 168.984 250.917 171.027 250.955 173.055 C 250.994 175.083 251.792 177.096 253.341 178.613 L 312.828 236.908 L 385.27 308.156"/>
  <path style="" d="M 393.646 294.102 L 426.536 254.627 L 459.425 215.153 C 460.816 213.483 461.411 211.398 461.248 209.376 C 461.086 207.355 460.165 205.396 458.527 203.981 C 456.888 202.564 454.84 201.959 452.855 202.125 C 450.869 202.29 448.946 203.227 447.556 204.895 L 414.983 243.992 L 382.409 283.088"/>
  <path d="M 453.733 274.775 C 455.814 274.854 457.959 275.768 459.52 277.42 C 461.048 279.102 461.831 281.33 461.771 283.445 C 461.71 285.561 460.799 287.74 459.176 289.327 L 438.418 309.26 L 417.662 329.191 C 416.872 329.944 415.937 330.539 414.986 330.916 C 414.034 331.293 412.98 331.49 411.974 331.49 C 410.954 331.49 409.889 331.282 408.924 330.9 C 407.965 330.508 407.02 329.901 406.227 329.131 L 383.592 306.95 L 349.222 348.202 L 314.506 389.869 C 313.775 390.739 312.847 391.471 311.864 391.972 C 310.875 392.466 309.741 392.772 308.618 392.836 C 308.547 392.84 308.465 392.844 308.394 392.846 C 308.327 392.847 308.257 392.848 308.186 392.848 C 307.136 392.848 306.059 392.629 305.098 392.241 C 304.142 391.846 303.216 391.244 302.453 390.504 L 204.434 294.907 L 187.292 311.836 L 169.802 329.11 C 168.171 330.691 165.987 331.505 163.904 331.49 C 161.822 331.44 159.665 330.557 158.082 328.927 C 156.531 327.268 155.733 325.05 155.748 322.933 C 155.796 320.818 156.661 318.627 158.262 317.016 L 198.628 277.152 C 200.217 275.613 202.337 274.795 204.372 274.771 C 206.408 274.781 208.533 275.586 210.131 277.116 L 259.04 324.816 L 307.563 372.138 L 339.574 333.718 L 371.637 295.236 L 312.478 237.265 L 252.991 178.97 C 251.385 177.367 250.512 175.18 250.455 173.064 C 250.431 170.948 251.221 168.729 252.766 167.063 C 254.342 165.426 256.496 164.535 258.578 164.477 C 260.66 164.453 262.847 165.259 264.484 166.833 L 323.622 224.782 L 382.372 282.352 L 414.599 243.672 L 447.172 204.575 C 448.644 202.842 450.739 201.816 452.813 201.627 C 454.89 201.47 457.122 202.135 458.854 203.603 C 460.555 205.101 461.561 207.229 461.746 209.336 C 461.901 211.447 461.248 213.712 459.809 215.473 L 426.92 254.947 L 394.325 294.068 L 403.187 302.752 L 412.032 311.418 L 429.743 294.412 L 447.803 277.069 C 449.456 275.513 451.651 274.73 453.733 274.775 Z M 448.495 277.791 L 430.435 295.134 L 412.024 312.812 L 402.487 303.466 L 392.967 294.136 L 426.152 254.307 L 459.041 214.833 C 460.384 213.254 460.921 211.349 460.75 209.416 C 460.611 207.482 459.775 205.692 458.2 204.359 C 456.654 202.993 454.79 202.448 452.897 202.623 C 450.999 202.764 449.248 203.612 447.94 205.215 L 415.367 244.312 L 382.446 283.824 L 322.922 225.496 L 263.784 167.547 C 262.325 166.085 260.498 165.423 258.598 165.477 C 256.696 165.497 254.896 166.232 253.492 167.749 C 252.055 169.239 251.403 171.105 251.455 173.046 C 251.476 174.986 252.199 176.825 253.691 178.256 L 313.178 236.551 L 372.995 295.168 L 340.342 334.358 L 307.639 373.609 L 258.342 325.532 L 209.433 277.832 C 208.007 276.412 206.234 275.749 204.376 275.771 C 202.517 275.761 200.747 276.435 199.33 277.864 L 158.964 317.728 C 157.478 319.165 156.762 321.008 156.748 322.949 C 156.703 324.89 157.363 326.754 158.806 328.237 C 160.215 329.749 162.018 330.476 163.92 330.49 C 165.821 330.537 167.645 329.867 169.1 328.398 L 186.59 311.124 L 204.43 293.505 L 303.151 389.788 C 303.838 390.466 304.604 390.964 305.476 391.315 C 306.345 391.675 307.234 391.848 308.186 391.848 C 308.249 391.848 308.31 391.847 308.376 391.846 C 308.438 391.844 308.495 391.842 308.56 391.838 C 309.579 391.79 310.519 391.536 311.414 391.08 C 312.313 390.633 313.081 390.027 313.738 389.229 L 348.454 347.562 L 383.518 305.477 L 406.927 328.417 C 407.64 329.123 408.421 329.624 409.298 329.972 C 410.169 330.327 411.048 330.49 411.974 330.49 C 412.888 330.49 413.754 330.328 414.618 329.986 C 415.483 329.643 416.258 329.16 416.969 328.47 L 437.726 308.538 L 458.484 288.605 C 459.989 287.19 460.716 285.357 460.771 283.417 C 460.827 281.476 460.208 279.604 458.786 278.1 C 457.397 276.568 455.604 275.814 453.703 275.775 C 451.803 275.7 449.97 276.345 448.495 277.791 Z" style="fill: none;"/>
  <path d="M 459.52 277.42 C 461.064 279.087 461.832 281.33 461.771 283.446 C 461.71 285.561 460.799 287.739 459.176 289.327 L 417.661 329.192 C 416.076 330.686 413.982 331.49 411.974 331.49 C 409.94 331.49 407.82 330.662 406.227 329.131 L 383.592 306.951 L 314.506 389.869 C 313.039 391.599 310.861 392.698 308.619 392.836 C 308.474 392.845 308.326 392.848 308.186 392.848 C 306.09 392.848 303.984 391.974 302.453 390.504 L 204.434 294.907 L 169.802 329.11 C 168.171 330.691 165.987 331.522 163.904 331.49 C 161.822 331.457 159.665 330.557 158.082 328.927 C 156.531 327.267 155.717 325.05 155.749 322.934 C 155.78 320.818 156.661 318.627 158.262 317.016 L 198.628 277.152 C 200.217 275.613 202.337 274.778 204.373 274.771 C 206.408 274.765 208.533 275.585 210.131 277.116 L 307.563 372.139 L 371.637 295.236 L 252.991 178.97 C 251.385 177.367 250.496 175.18 250.455 173.064 C 250.415 170.949 251.221 168.729 252.766 167.063 C 254.342 165.426 256.496 164.518 258.578 164.477 C 260.66 164.436 262.846 165.259 264.484 166.833 L 382.372 282.352 L 447.172 204.575 C 448.644 202.842 450.738 201.799 452.813 201.626 C 454.889 201.453 457.122 202.136 458.854 203.603 C 460.555 205.101 461.577 207.227 461.747 209.336 C 461.916 211.446 461.248 213.712 459.809 215.473 L 394.325 294.068 L 412.032 311.418 L 447.803 277.069 C 449.457 275.512 451.651 274.712 453.733 274.775 C 455.815 274.837 457.975 275.752 459.52 277.42 Z M 453.703 275.774 C 451.803 275.717 449.97 276.345 448.495 277.791 L 412.024 312.812 L 392.967 294.136 L 459.041 214.833 C 460.384 213.255 460.905 211.351 460.75 209.417 C 460.594 207.482 459.776 205.692 458.2 204.359 C 456.654 202.993 454.792 202.465 452.896 202.623 C 451.001 202.781 449.248 203.612 447.94 205.215 L 382.446 283.824 L 263.784 167.547 C 262.325 166.085 260.499 165.439 258.597 165.477 C 256.696 165.514 254.896 166.232 253.492 167.749 C 252.056 169.238 251.419 171.105 251.455 173.045 C 251.492 174.986 252.199 176.825 253.691 178.256 L 372.995 295.168 L 307.639 373.609 L 209.433 277.832 C 208.008 276.412 206.234 275.765 204.376 275.771 C 202.517 275.777 200.747 276.435 199.33 277.864 L 158.964 317.728 C 157.478 319.165 156.778 321.008 156.748 322.949 C 156.719 324.89 157.364 326.754 158.806 328.237 C 160.215 329.749 162.019 330.46 163.92 330.49 C 165.822 330.52 167.645 329.866 169.1 328.398 L 204.43 293.505 L 303.151 389.788 C 304.522 391.152 306.278 391.848 308.186 391.848 C 308.314 391.848 308.434 391.845 308.559 391.838 C 310.603 391.752 312.429 390.833 313.738 389.229 L 383.518 305.478 L 406.927 328.417 C 408.348 329.838 410.118 330.49 411.974 330.49 C 413.806 330.49 415.554 329.858 416.969 328.47 L 458.484 288.605 C 459.99 287.19 460.716 285.357 460.771 283.417 C 460.827 281.477 460.192 279.618 458.786 278.1 C 457.381 276.583 455.604 275.831 453.703 275.774 Z" style="fill: none;"/>
  <g transform="matrix(0.922329, 0, 0, 0.939281, 13.430052, 11.846858)" style="">
    <g>
      <path d="M250.862,145.222l-37.96-36.525c-3.23-3.107-8.327-3.148-11.606-0.092L43.757,255.453 c-3.41,3.179-3.598,8.518-0.42,11.928c1.663,1.784,3.917,2.685,6.176,2.685c2.061,0,4.126-0.749,5.752-2.266l151.693-141.398 l32.2,30.983c3.358,3.232,8.701,3.128,11.934-0.23C254.323,153.797,254.221,148.455,250.862,145.222z" style="fill: rgb(102, 102, 110);"/>
    </g>
  </g>
  <g transform="matrix(0.922329, 0, 0, 0.939281, 13.430052, 11.846858)" style=""/>
  <g transform="matrix(0.922329, 0, 0, 0.939281, 13.430052, 11.846858)" style=""/>
  <g transform="matrix(0.922329, 0, 0, 0.939281, 13.430052, 11.846858)" style=""/>
  <g transform="matrix(0.922329, 0, 0, 0.939281, 13.430052, 11.846858)" style=""/>
  <g transform="matrix(0.922329, 0, 0, 0.939281, 13.430052, 11.846858)" style=""/>
  <g transform="matrix(0.922329, 0, 0, 0.939281, 13.430052, 11.846858)" style=""/>
  <g transform="matrix(0.922329, 0, 0, 0.939281, 13.430052, 11.846858)" style=""/>
  <g transform="matrix(0.922329, 0, 0, 0.939281, 13.430052, 11.846858)" style=""/>
  <g transform="matrix(0.922329, 0, 0, 0.939281, 13.430052, 11.846858)" style=""/>
  <g transform="matrix(0.922329, 0, 0, 0.939281, 13.430052, 11.846858)" style=""/>
  <g transform="matrix(0.922329, 0, 0, 0.939281, 13.430052, 11.846858)" style=""/>
  <g transform="matrix(0.922329, 0, 0, 0.939281, 13.430052, 11.846858)" style=""/>
  <g transform="matrix(0.922329, 0, 0, 0.939281, 13.430052, 11.846858)" style=""/>
  <g transform="matrix(0.922329, 0, 0, 0.939281, 13.430052, 11.846858)" style=""/>
  <g transform="matrix(0.922329, 0, 0, 0.939281, 13.430052, 11.846858)" style=""/>
</svg>